<?xml version="1.0" encoding="utf-8"?>
<!-- Generator: Adobe Illustrator 18.1.0, SVG Export Plug-In . SVG Version: 6.00 Build 0)  -->
<!DOCTYPE svg PUBLIC "-//W3C//DTD SVG 1.1//EN" "http://www.w3.org/Graphics/SVG/1.1/DTD/svg11.dtd">
<svg version="1.1" id="Layer_1" xmlns="http://www.w3.org/2000/svg" xmlns:xlink="http://www.w3.org/1999/xlink" x="0px" y="0px"
	 viewBox="-12.1 138.1 32.4 27.5" enable-background="new -12.1 138.1 32.4 27.5" xml:space="preserve">
<path opacity="0.12" d="M-5.9,158.3l-0.1,0.2l0,0.1l-0.3,0.3l-0.2,0.3l-0.4,0.9h0L-7,160l-0.1-0.1l-0.2-0.1l0,0.1l0,0.1l0,0.1
	l-0.1,0.1l0,0.2l-0.1,0.2l-0.2,0.2l-0.1,0.2l0,0.1l-0.1,0.3l0,0.1l-0.1,0.3l-0.2,0.6l-0.1,0.9l-0.1,0.1l0.1,0l0.1,0l0.1-0.1l0.1-0.3
	l0.2-0.7l0.4-1.2l0.7-1.4l1-1.4l0.1-0.1l-0.1-0.1L-5.9,158.3z M-4.2,155.8L-4.2,155.8l-0.2,0l-0.1,0.1l0,0.1l-0.1,0.1l-0.1,0
	l-0.4,0.8v0l0.1,0l0,0.1l0,0.1l0,0.1l-0.2,0.2l-0.3,0.4l-0.1,0.3l0.1,0.2l0-0.2l0.1-0.2l0.3-0.3l0.3-0.5l0.7-0.8l0-0.1l0-0.2l0-0.1
	L-4.2,155.8L-4.2,155.8z M-8,168l0.1,0.4l0.1,0.2l0.1,0.1l0,0.1l0.1,0.5l0.1,0.2l0.2,0.3l0.1,0.2l0.1,0.7l0.1,0.2l0.1,0.2l0.1,0.1
	l0.2,1.7l0.1,0.1l0.1,0l0.1-0.2l0-0.1l-0.1-0.5l-0.1-0.3l0-0.2l0-0.4l0-0.2l-0.1-0.3l-0.1-0.5l0-0.2l-0.1-0.1l0-0.1l-0.8-2.6
	l-0.3-1.5l-0.1-2.2l0.1-0.2l-0.1,0.1l0,0.4l-0.1,0.2l0.1,0.2l0,0.2l-0.1,0.3l0,0.2l0.1,0.3l0.1,0.8l0,0.3l-0.1,0.3l0.2,0.3l0,0.1
	l0,0l0,0.1l0,0l0,0l-0.1,0l0,0l0,0.1l0,0.1l0,0.1l0,0l-0.1,0.1L-8,168z M11.2,145.3L11.2,145.3L11.2,145.3L11.2,145.3L11.2,145.3
	L11.2,145.3L11.2,145.3L11.2,145.3L11.2,145.3l-0.1,0v0.1L11.2,145.3l0,0.2l0,0.1l-0.1,0.1l0,0l-0.2,0l0,0l-0.1,0.1l-0.3,0.3l0,0
	l-0.1,0l-0.1,0l-0.1,0.1l0,0.1l-0.1,0.1l-0.6,0.4l-0.3,0.3l-0.1,0.2L9,147.5H9l0.1-0.2l1.1-0.8l0.3-0.1l1.1-0.9L11.2,145.3
	L11.2,145.3z M21.1,130.4l-0.1-0.1l-0.2-0.3l0-0.1l0.1-0.1l0-0.1l0-0.4l0-0.1l-0.1,0l-0.1,0l0,0l0,0l0,0l0,0l0,0l0,0l0,0l0-0.2l0,0
	l0-0.1l0,0l0-0.1l0-0.1l0-0.1l0,0l0,0l-0.1-0.1l-0.2-0.2l0,0l0-0.1l0-0.1l0-0.1l0,0l0-0.1l0,0l0.1-0.1l0,0l0,0l-0.1-0.1l-0.1-0.1
	l-0.1-0.1l0-0.1l0-0.1l0-0.1l0-0.1l0-0.1l0,0l0,0l-0.1,0l0,0l0,0l0,0l0,0l0-0.1l0,0l0,0l0.1-0.1c0,0,0,0,0,0l0,0l0,0l0,0l0,0l0,0
	l0,0l-0.2-0.1l0,0l0,0l-0.1-0.1l-0.2-0.2l-0.1-0.1l0-0.1l0-0.1l0-0.1l0-0.1l0-0.1l0-0.1l0-0.1l0,0l0-0.1l0-0.2l0-0.1l0-0.1l0,0l0,0
	l0,0l0,0l0,0l0-0.1l0-0.1l-0.1-0.3l0-0.1l-0.2-0.3l-0.1-0.1l0-0.1l0-0.1l-0.1-0.1l-0.1-0.1l-0.1-0.2l-0.1-0.1l-0.2-0.1l0,0l0,0l0,0
	l-0.2-0.3l0,0l-0.1-0.1l0,0l-0.1-0.1l0,0l0,0l0,0c0-4.7,0-9.3,0-14l-0.1,0l-0.1-0.1l-0.2-0.2l-0.1,0.1l-0.2,0l-0.1,0l-0.3-0.2
	l-0.1,0l-0.1,0.1l-0.1,0l-0.4-0.2l-0.1,0l-0.1,0.1l-0.1,0.1L15,108l-0.2-0.1l-0.2,0.1l-0.1,0l-0.1-0.1l0.1-0.1v-0.1l-0.2,0l-0.2-0.1
	l-0.1-0.1l-0.1-0.2l-0.1-0.2c-0.1,0-0.1,0-0.2,0l-0.2,0l-0.1-0.1v0.1l-0.4-0.1l-0.1-0.1l0-0.1l0,0l-0.2,0l-0.2,0l-0.1-0.1l-0.1-0.1
	l-0.1,0l-0.1,0l0,0l-0.1,0l-0.1,0l0,0l-0.1-0.1l-0.1-0.1l-0.1-0.2l-0.1,0l-0.1,0l-0.2-0.1l-0.5-0.1l-0.3-0.3l-0.1-0.2l0-0.1
	l-0.1-0.1l-0.1,0l0-0.1l0-0.1l0,0l0-0.1l-0.1,0l-0.1,0l-0.3,0l-0.1,0l-0.1-0.1l-0.2-0.2l-0.1-0.1l-0.2-0.1l0-0.1l0-0.1l0-0.1
	l-0.1-0.1l-0.5-0.2l-0.1,0l-0.1,0.1l0,0.1l0,0.2l0,0.1l-0.1-0.1l0,0.1l-0.1,0l-0.1,0l-0.1,0l-0.1-0.1H7.3l0,0.1l0,0.1l0,0l0,0l0,0
	l-0.1,0l-0.6,0l-0.1,0l0-0.1l-0.1,0l-0.1,0l-0.1,0l0,0l0,0l0,0l0,0l0,0l0,0l0,0l-0.2,0l-0.1-0.1l0.1-0.1l-0.1-0.1l-0.1-0.1l-0.1-0.1
	l-0.1-0.1l-0.1,0l-0.1,0.1l-0.1,0.2l-0.1,0l-0.1,0l0,0l-0.2,0.1l-0.1,0l-0.1,0l-0.1,0.1l-0.1,0.1l-0.1,0l-0.1,0l-0.2,0L4,104.9
	l0,0.3l-0.1,0.1l-0.1,0l0,0l0-0.1l-0.1,0l0,0l0,0.1l-0.2,0l-0.1,0L2.9,105l-0.1-0.1l-0.1,0l-0.1,0.1L2.5,105l0,0.1l-0.1,0l-0.1,0.1
	l-0.1,0.1L2,105.4l-0.1,0H1.5l-0.1,0l-0.2,0.1l-0.1,0l-0.1,0.1l-0.1,0.3L0.9,106l-0.1,0.1l-0.1,0l-0.3,0l-0.2,0l0,0.1l0,0.1l0,0.2
	l-0.2,0.1l-0.2-0.2l-0.2-0.3l-0.2-0.2l-0.1,0l-0.5,0l-0.1,0l0-0.1l0-0.1l0-0.1l0,0l-0.2-0.1l-0.3-0.1l-0.1-0.1l0,0l0,0l0,0v-0.1l0,0
	l0.1-0.2l0-0.1l-0.1-0.1l-0.2-0.1l-0.1,0l-0.1,0l0,0l0,0l0,0.1l-0.1,0.3l0,0l0,0l0,0l0,0l-0.1,0l-0.1,0l-0.1,0l-0.1,0l-0.1,0l0,0
	l-0.2-0.2l-0.1,0l-0.1,0l-0.3,0l-0.1,0l-0.1,0l0,0l-0.1-0.1l-0.1-0.1l0-0.1l0-0.3l0-0.1l0,0l-0.1,0l-0.1,0l-0.1,0h-0.1l-0.3,0l0,0
	l0,0l-0.1,0.1l0,0.1l0,0.2l-0.1,0.2l-0.1,0.2l-0.2,0l-0.3-0.1l0,0.1l0.1,0.1l0.1,0l0,0.1l0,0.1l-0.1,0.1l0,0.1l0,0.3l-0.1,0.2
	l-0.1,0.1l-0.2,0l-0.2-0.1l-0.2-0.2l-0.1-0.2l0-0.2l0-0.2l0.1-0.2l0-0.1l0-0.1l-0.1-0.1l-0.1-0.1l-0.1-0.1l0,0l-0.1,0l0,0l0,0l0,0.1
	l-0.1,0.2l0,0.1l-0.2-0.2l-0.1,0l-0.1,0.1l0,0l0,0.1l0,0l0,0l-0.1,0l0,0l-0.1,0l-0.1,0l-0.5,0l-0.1-0.1l0-0.2l0-0.2l-0.1-0.1
	l-0.1-0.1l-0.2,0l-0.5,0l-0.1-0.1l-0.1-0.2l0-0.3l-0.1-0.2l-0.3-0.1l-0.3,0.1l-0.3,0.2l-0.7,0.7l-0.3,0.2l-0.3,0.1l-0.3-0.1
	l-0.2-0.1l-0.1-0.1l0-0.1l0-0.1l0-0.1l0.1-0.2v-0.1l-0.1-0.1l0-0.1l0-0.1l-0.1-0.1l-0.1,0l-0.3-0.1l-0.4-0.1l-0.3-0.1l0-0.3l0-0.2
	l0-0.3l0-0.2l-0.1-0.1l-0.2,0l-0.4,0.1l-0.2,0l-1-0.1l-0.2,0.1l-0.1,0.1L-16,103l-0.1,0.2l0,0.1l-0.2,0l-0.4,0l-0.1-0.1l-0.3-0.3
	l-0.1-0.1l-0.1,0l-0.1-0.2l-0.1-0.1l-0.2-0.1l-0.1,0l-0.2,0l-0.5,0.2l-0.1,0l-1-0.2l-0.2-0.1l-0.6-0.4l-0.2,0l-0.1,0l-0.1,0.1
	l-0.2,0l-0.2,0l-0.3-0.1l-0.2,0l-0.4,0l-0.2,0l-0.1-0.1l0-0.1l0-0.5l0-0.1l0-0.1l-0.1-0.2l-0.2-0.2l-0.1-0.1l0-0.2l-0.1-0.1
	l-0.2-0.1l-0.1,0l-0.1,0l-0.1,0l-0.1-0.1l0-0.1l0-0.1l0-0.1l-0.1-0.1l-0.1,0l-0.1,0.1l0,0.5l-0.1,0.1l-0.1,0.1l-0.2,0l-0.2-0.1
	l-0.3-0.2l-0.4-0.1l-0.1,0l-0.1,0l-0.1,0.1l-0.1,0l-0.1,0l-0.5,0l-0.1,0l-0.1-0.1L-26,100l-1.3-1.2l-0.1-0.1l-0.2,0l-0.1,0l-0.1,0
	l-0.3,0l-0.1,0c0-6,0-11.9,0-17.9l-0.1,0c64.9,0,75.7,69,48.6,88.9c-14.2,12-103.2,33-99.2-47.7l0,0.2l0.2,0.3l0,0.2l0,0.2l0.1,0.2
	l0.2,0.3l-0.1,0.1l0.1,0.1l0.1,0.1l0.1,0l0.1,0h0l0.1,0.1l0.5,0.5l0.1,0l0.3,0l0.3,0.1l0.3,0.3l0.2,0.3l0.1,0.3l0.2,0.6l0.1,0.2
	l0.3,0.4l0.1,0.1l0,0.1l0,0.1l0,0l0,0.1l0.3,0.2l0.1,0.1l0.2,0.1l0.3,0.1l0.3,0.2l0.1,0.1l0.2,0l0.1,0l0.3,0.2l0.1,0.1l0.1,0.1
	l0.1,0.1l0,0.1l0.1,0.1l0.1,0.1v0l0.1,0l0.1,0.1l0.6,0.7l0.1,0.2l0.1,0.1l0.6,0.4l0.1,0.1l0.1,0l0.2,0.2l0.2,0.1l0.1,0.1l0.1,0.1
	l0.1,0.2l0.1,0.3l0.1,0.1l0.2,0.1l0.3,0.3l0.6,0.5l0.3,0.4l0.1,0.1l0.2,0.1l0.4,0.2l0,0l0,0.1l0,0l0.1,0l0,0l0,0l0.1-0.1l0,0l0.1,0
	l0,0l0.1,0l0.1,0.1l0.1,0l0.1,0l0.1,0l0,0.1l0,0.1l0,0l0,0l0.1,0.1l0-0.1h0l0.4,0.4l0.1,0.1l0.1,0l0.2,0.1l0.2,0.1l0.1,0.1l0,0.1
	l0,0.1l0,0.1l0,0.1l0.1,0l0.2,0l0,0l0,0.1l0.2,0.3l0.1,0.2l0,0.1l0,0.2l0,0.1l0.1,0.1l0,0l0,0.1l0,0.1l0,0.1l0,0.1l0.1,0.1l0,0.1
	l0,0.1l0,0.1l0,0l0.1,0.1l0.1,0.1l0.1,0.1l0,0.1l0,0.1l0,0.1l0,0.1l0,0l0.1,0.1l0.1,0.2l0.1,0.2l0.1,0.2l0.1,0l0.1,0.1l0.1,0.1
	l0.1,0.3l0.1,0.1l0,0.2l0,0.3l0,0.2l-0.1,0.3l0,0.2l0,0.2l0.1,0.5l0,0.1l0,0.1l0,0.1l0,0l0.1,0.1l0,0l0,0.1l0.1,0.2l0.1,0.4l0,0.1
	l0.1,0.2l0.1,0.1l0.1,0.1l0.1,0.4l0.1,0.3l0,0.1l0,0.1l0,0.1l0,0.1l0.1,0.1l0.4,0.3l0.1,0.1l0,0.1l0,0.1l0,0.1l0,0l0.1,0l0.6,0.4
	l0.1,0.1l0.1-0.1l0.2,0l0.2,0.1l0.1,0.2l0.2,0.1l0.1,0l0,0l0.1,0.3l0.2,0.3l0.2,0.1l0.3,0.1l0.4,0.4l0.3,0.2l0.7,0.2l0.5,0.1l0.5,0
	l0.1,0l0.1,0.1l0,0.1l-0.1,0.2l0.1,0l0.1,0l0.1,0l0.4,0.3l0.2,0.1l0.7,0.2l0.2,0l0.1,0l0.1,0.1l0,0.1l0,0.1l0,0.1l0.4,0.4l0.3,0.2
	l0.1,0l0.1,0l0.2,0.2l0.1,0l0.1-0.1l0.1-0.1h0l0.1,0l0.1,0.2l0,0l0.1,0l0,0.2l0.1,0.1l0.5,0l0.4,0.1l0.3,0l0.2-0.1l0.1-0.2l0-0.3v0
	l0.1,0l0,0l0-0.2l0-0.1l0.1-0.1l0.3-0.2l0.1-0.1l0.1-0.1l0.2-0.4c0,0,0.1-0.1,0.1-0.1l0.2,0.1l0-0.1l0.3-0.3l0.2,0l0.1,0h0l-0.1-0.1
	l-0.2-0.1l-0.1-0.1l0-0.1l0.1-0.3l0-0.2l0-0.1l0-0.1l0.1-0.1l0,0l0,0l0.1,0l0.1,0h0l0,0l-0.1-0.1l0-0.1l0.1-0.1l0-0.1l0-0.1l0-0.1
	l0-0.1l0-0.1l0-0.1l0.2-0.6l0.1-0.1l0-0.1l0-0.1l0.1,0h0l0,0l0-0.1l0.1,0l0-0.1l0.1-0.1v0l0.1-0.2v0l0,0l0-0.1l0.2-0.4l0-0.1l0-0.1
	l0-0.1l0.1-0.1l0.1,0l0.3,0l0.1,0l0.3-0.2l0.1-0.1l0,0l0,0.1l0,0l0,0l0,0l0,0l0,0l0.1-0.1v0l0.1-0.1v0l0.1,0l0.8,0.1l0,0l0.2-0.3
	l0-0.1l0-0.2l0-0.1l0.1-0.1l0.1,0l0.1,0v0l0.1-0.2l0.1,0l0.1,0l0.1,0.1l0.1,0.1l0.1,0l0,0.2l0.1,0.1l0.3,0l0.4,0.2l0.1,0.1l0.3,0.1
	l0.7-0.1l0.2,0.1l0.1-0.1l0.1,0l0.1,0.1l0.1,0.1l0.1,0l0.1,0l0.1,0l0.1,0l0.1,0l0.1,0l0.2,0h0.3l0.1-0.1h0.1l0,0.1l0.1,0l1.2,0.2
	l0.4-0.1l0.1,0l0.1-0.1l0-0.2l0,0l0.1,0l0.1,0.1l0,0.1l0,0l-0.1,0.1l0,0.1l0.2,0l0.1-0.1l0.1-0.1l0.1-0.1l0.1,0l0.1,0.1l0.1,0l0.1,0
	l0.1,0l0.1,0l0.1,0l0,0.1l0,0.1l0.1,0.1l0.1,0.2l0.1,0.2l0.1,0.2l0,0.1l0.1,0.1l0.1,0.1l0.2,0l0.1,0l0,0.1l-0.1,0.2l0,0.1l0.1,0
	l0.1-0.1l0.2-0.1l0.2,0l0.1,0.1l0,0.2l-0.1,0.3l0,0.1l0.1,0.1l0.1,0l0.1,0l0.1,0.1l0.1,0.2l0.2,0.1l0.5,0.2l0.2,0.1l0.1,0.1l0,0.2
	l0,0.1l0,0.1l0.1,0.1l0.1,0.1l0.1,0.1l0.6,0.3l0.2,0.2l0.1,0.2l0.1,0.1l0.4,0.2l0.2,0.1l0.1,0.1l0.2,0.3l-0.1,0.2l0.1,0.1l0.4,0.3
	l0,0l0,0.1l0.1,0l0.1,0l0.1,0l0.1,0.1l0.1,0.5l0.1,0.3l0,0.2l-0.1,0.2l0.1,0.1l0,0.1l0,0.1l0,0.1l0,0.1l0.1,0.1l0.1,0.1l0,0.1l0,0
	l0.1,0.1l0,0l0,0.1l0,0.1l0,0.1l0.1,0l0.1,0l0,0l0,0l0,0.1l0,0l0,0.1l0.2,0.8l0.1,0.2l0.3,0.4l0,0.2l0.1,0.1l0.2,0.1l0.1,0.1l0,0.1
	l0,0.2l0,0.1l0.1,0.2l0.2,0.1l0.3,0.1h0l-0.2,0.1l0,0.1l0,0.1l0.1,0.1l0.1,0.1l0,0l0,0.3l0.1,0.3l0.2,0.3l0.1,0.2l0,0.1l0,0.2
	l0.1,0.2l0.1,0.1l0.1,0.1l0.2,0l0.1,0l0,0.1l0,0.1l0,0.1l0.1,0.1l0.1,0l0.7,0.4l0.1,0.1l0.1,0.2l0,0.1l0,0.1l0.1,0.1l0.1,0.1l0.1,0
	l0,0l0,0.1l0,0.1l0.1,0.1l0.1,0.1l0.1,0.1l0.1,0.1l0.1,0l0.2,0l0.1,0.1l-0.1,0.1l0.1,0.1l0.1,0.2l0.1,0.1l0.1,0.1l0,0l0,0.1
	l-0.1,0.1l0,0.1l0.1,0l0.1,0l0.1,0.1l0,0.1l0,0.2l0,0.1l0,0l0.1,0.1l0.1,0.1v0l0.2,0l0.1,0.1l0.1,0.1l0.1,0.1l0.1,0l0.1,0l0.1,0
	l0,0.1l0,0.1l0,0.1l0.1,0l0.1,0.2l0,0l0.3,0l0,0l0.1,0.1l0,0l0.1,0l0.2-0.1l0.1,0l0.1,0l0.1,0.2l0,0l0.1,0l0.2,0.1l0.2,0.1l0.1,0.1
	v0.3l0,0.2l0,0.1l0,0l0.1,0l0.1,0l0,0.1l0,0.1l0,0l0,0.3l0,0.1l-0.1,0.2l0,0.2l0,0.1l0,0.1l0,0.1l-0.1,0.1l0,0l0,0.1l0.2,0.1l0,0
	l0,0l0,0.1l0,0l0.1,0l0,0l0.1,0.1l0.1,0.1l0.1,0.2l0,0.2l0,0.2l-0.1,0.4l0,0.2l0,0l0,0l0,0.1l0,0.1l0,0.1l-0.2,0.3l0.1,0.2l0,0
	l0.1,0.1l0.1,0l0.1,0l0.1,0l0.1,0.1l0,0.1l0,0.2l0,0.1l0.1,0.1l0.3,0.2l0.1,0.1l0.2,0.3l0.1,0.1l0.1,0.1l0.1,0.1l0.1,0.4l0.1,0.4
	l0.3,0.9c0,0.2,0.1,0.4,0.1,0.6l0,0.2l0.2,0.1l0.2,0l0.1,0.1l0.1,0.2l0,0.1l0,0.1l-0.1,0.1l0,0.1l0,0.1l0.2,0.1l0.1,0l0.1,0l0.1,0
	l0,0l0,0.1l0,0l0,0l0.1-0.1l0.2,0l0.1,0l0.1,0.1l0.1-0.1l0.3,0.2l0.2,0l0.1,0.1l0.1,0l0.1,0l0-0.1l0.1,0l0.1,0l0.1,0l0.1,0l0,0
	l0.1,0.1l0.3,0.2l0.1,0.1l0,0.1l0.1,0l0.1,0l0.1,0l0.1,0.1l-0.1,0.1l0,0l0.1,0l0.1,0l0.2,0.2l0.1,0.1l0.1,0l0.5-0.2l0.2,0.1l0.2,0.1
	l0.2,0.1l0.2,0.2v0c0-0.1,0.1-0.1,0.1-0.2l0.2,0.1l0.2,0.1l0.2,0.1l-0.1,0.2v0.1l0.1,0l0.2,0l0,0.1l0.2,0.3l0.1,0.1l0.6,0.3l0.3,0.1
	l0.3,0l0.4-0.1l0.2,0l0.1,0.2l0.1,0l0.2-0.1l0.2-0.1l0.1,0l0.4,0.1l0.5-0.1h0.6l0.2,0l0,0.1l0.1,0l0.7,0l0.1,0l0.1,0.1l0.1,0.1
	l0.1,0.1l0.1,0.1l0.1,0.1l0.2,0.1l0.3,0.4l0.1,0.1l0.1,0.1l0.1,0l0.2,0l0.1,0.1l0,0.1l0.1,0.1l0.2,0l0,0h0l0-0.1l0,0v0l0.1,0l0,0
	l0,0.1l0,0.1l0.1,0l0.2-0.1l0-0.2l-0.1-0.2l0-0.2l0,0l0.2-0.1l0.1,0.1l0.2-0.1c0,0,0.1-0.1,0.1-0.1l0-0.1v0l0.1,0l0.4,0l0.5,0l0-0.1
	c0-0.2,0-0.4,0-0.6l-0.1-0.2l-0.1,0l-0.1,0.1l0,0.1l0,0.2l0,0.1l-0.1,0.1l-0.1,0.1l-0.2,0.1l0,0l0,0l0,0l-0.1,0l0,0l0-0.1l0-0.1
	l0-0.1l0.1-0.2l0-0.1l0.1,0.1l0.1,0l0.1-0.1l0-0.1l-0.1,0l-0.1,0l-0.2,0l-0.1,0l-0.1,0l-0.1,0l0,0l-0.1-0.1l0-0.2l0-0.3l0-0.2
	l-0.1-0.2l0-0.1l0-0.1l0-0.1l0.1-0.1l0-0.1l0-0.1l-0.1,0l-0.1,0l-0.1,0l-0.1,0l-0.1-0.1v-0.2l0-0.2l0.1-0.1l0,0l0-0.1l-0.1,0l0,0
	l0,0l0,0l-0.1,0l-0.1,0l0-0.1l0.1-0.2l0-0.1l0,0l-0.2,0l-0.1,0l0-0.1l0-0.1l0-0.1l-0.1,0l-0.1,0l0,0l0-0.1l0-0.2l0-0.1l0-0.1
	l-0.3-0.1l0.2-0.1l0.1-0.1l0-0.1l0,0l0.1,0.1l0,0.1l0-0.3l-0.2-0.6l-0.1-0.6l-0.2-0.5l-0.1-0.4l0-0.1l-0.1-0.1l-0.1-0.1l-0.1,0
	l-0.1,0l-0.1,0l-0.1-0.1l0-0.1l0-0.2l0-0.2l0.1-0.1l0.1,0l0.3,0.3l0.1-0.2l-0.1-0.1l-0.3-0.1l-0.1-0.1l-0.1-0.1l0-0.2l0-0.4l0-0.1
	l0.1,0l0.4,0l0.1-0.1l0-0.1l-0.1-0.2l0.1-0.1l-0.1-0.1l-0.1-0.1l0,0l0.1,0l0.1,0l0.1-0.1l0.1-0.1l0-0.1l-0.1-0.1l0-0.1l0.1,0l0-0.1
	l0-0.1l0-0.2l0-0.1l0.1,0l0.1-0.1l0-0.1l0-0.1l-0.5,0.2l-0.1,0.1l-0.1,0.1l-0.2,0l-0.4-0.1l-0.2-0.1l-0.1-0.1l-0.1-0.1l-0.2,0
	l-0.4,0l-0.2,0l-0.1-0.2l0.2,0l0.2,0l0.2,0l0.2-0.1l0.1-0.1l0-0.1l-0.1,0l-0.1,0.1l0,0l0,0l0-0.1l0.2-0.1l-0.1-0.2l-0.3-0.3h0.1
	l-0.1-0.2l-0.3-0.3l0-0.2l0.2,0.2l0.2,0.2l0.6,0.9l0,0.1l0,0.1l0,0.1l0.1,0l0.1,0l0,0l0-0.1l0-0.1l0.1-0.2l0.1,0l0,0.1l0.1-0.1
	l0.1,0l0.1,0l-0.1-0.1l0.1-0.1l0.2-0.2l0.1-0.1l0,0.2l0,0.2l0,0.1l0.1,0l0.1,0l0,0l0.1,0l0,0l0,0l-0.1,0.1l-0.1,0l-0.1,0l-0.2,0l0,0
	l0,0l0,0l0,0l-0.1,0.1l-0.3,0.1l0.1,0.1l0.1,0l0.2-0.2l0.5-0.2l0.1-0.1l0-0.2l0.3-0.9l0.1-0.1l0-0.1l0-0.2l0.1-0.4l0.2-0.4l0-0.1
	l0-0.2l0-0.1l0-0.1l0.1-0.1l0.1-0.1l0-0.1l-0.1-0.1l-0.7-0.3l-0.1-0.1l-0.2-0.2l0.1-0.1l0-0.1l0.1-0.2l0-0.1l-0.1,0.1l-0.1,0l-0.1,0
	l-0.1-0.1l-0.2,0.1l-0.2,0l-0.1-0.1l-0.1-0.2l0.1,0l0,0l0.1,0l0,0l0,0l0,0l0,0l0.1,0l0.1,0l0,0l0-0.1l0,0l0.2,0l0.4,0L-8,158l0,0.1
	l0,0l0,0l-0.1,0l0.2,0l0.3-0.1l0.2,0l0.1,0l0.1,0.1l0.1,0.1l0.1,0.1h-0.2v0.1l0.2,0l0.2-0.1l0.6-0.9l0.3-0.5l0,0v0l0,0l0,0l0.1-0.3
	l0.1-0.1l0.1-0.1l0,0l0-0.1l0-0.1l0.1-0.3l0-0.1l-0.1-0.1l-0.1,0l0,0l0,0l0,0l0,0l-0.1,0.1l-0.4,0.2l-0.1,0.1l0,0.1l0,0.1l-0.1,0.1
	l-0.1,0.1l-0.1,0l0,0l0-0.1v-0.1l-0.1-0.1l-0.1-0.1l-0.1-0.1l-0.2,0l-0.1-0.1l0.1-0.2l0.3-0.3l-0.1,0l0-0.1l0-0.1l0.1-0.1l0.1,0
	l0.1,0l0.1,0.1l-0.1,0.1l0.2-0.1l0.3-0.1l0.3-0.2l0.1-0.2h0.1l0,0.1l0,0.3l0,0.1l0,0l0,0l0,0l0,0l0.3,0.1l0.1,0l0.1-0.2l0.1-0.2
	l0-0.1l0-0.1l-0.1-0.1l0.2-0.3l0.1-0.1l0.1,0l0,0.1l-0.1,0.1l0,0.2l0.1,0.2l-0.1,0.1l-0.1,0.1l-0.1,0.3l0.1-0.1l0.2-0.1l0.1-0.1
	l0.3-0.4l0.1-0.1l0.3-0.2l0.1-0.1l-0.1-0.3l0-0.2l0.1-0.1l0-0.1l-0.1-0.2l-0.2-0.3l-0.1-0.2l0.1-0.1l0.1,0.1l0.2,0.1l0.1,0.1
	l0.1-0.1l0-0.1l-0.1-0.1l-0.2-0.2l-0.1,0l0-0.1l0-0.1l0.1-0.1l0.1,0l0.1,0.1l0.1,0.2l0,0l0.1,0l0,0l0,0.1l0,0.1l0,0.1l0,0l0.1,0
	l0.1,0l0,0.1l0,0.3l0,0.1l0.1,0.1l0.1,0l0.1,0.1l0.8-0.5l0.1,0l0.3-0.2l0.1,0l0.5-0.3l0-0.2l-0.2-0.2l-0.3-0.1l-0.2,0.1l-0.1,0.1
	l-0.1,0.1l-0.1,0l-0.1-0.1l0.1,0l0.4-0.2l-0.1-0.2l0-0.1l-0.1-0.1l-0.1,0l-0.2-0.1l-0.2-0.2l-0.1,0l-0.1,0.1l-0.1,0l-0.1-0.1v-0.1
	l0-0.2l0-0.1l0-0.1l0-0.1l-0.2-0.3l-0.1-0.1l0-0.2l0-0.2l0.1,0l0,0l0,0l0.1-0.1l0.1,0l0.1,0l0.1,0.1l0.1,0.1l0,0.1l0,0.1l0,0.1
	l0,0.1l0,0.1l0,0.1l0,0.1l0,0l0.1,0l0,0l0.1,0l0.1,0l0.1,0l0,0.1l0.1,0.2l0.3-0.2l0.1,0.2l0,0.2l-0.1,0l-0.1,0l-0.1,0.1l0.2,0
	l0.3-0.1l0.4-0.3l-0.3-0.1l-0.1-0.1l0-0.1l0-0.1l0-0.1l0-0.1l0-0.1l0,0l0.1,0l0-0.1l0-0.1l0-0.1l-0.1,0l-0.1,0.1l-0.1,0l-0.1-0.1
	l-0.1-0.1l0-0.2l0-0.1h0l0,0.1l0.1,0.2l0,0l0.1,0l0,0l0.1,0.1l0,0.1l0,0.1l-0.1,0.1l0,0.1l0.2,0.2l0,0.1l0,0.1l0,0l0.1,0l0.2-0.1
	l0.2-0.2l0.2-0.1l0,0.1l0.2-0.1l0.1,0l0.1,0l0.2,0l0.1,0l0,0.1l-0.2,0.3l0,0.1l0,0.1l0.2,0l0.1,0l0.1,0l0.1,0l0.1,0v0.1h0L1,151.7
	l-0.3,0l-0.1,0.1l0,0.1l0.2,0l0.4-0.1l0.4-0.2l0.2,0l0.1,0l0.3-0.2l0.2,0l0.1,0.1l0,0.1l0,0.1l-0.1,0.1l-0.2,0L1,152.3l-0.3,0.2
	l-0.2,0.2l0.2-0.1l0.5-0.3l0.4-0.1l0.5-0.4l0.8-0.2l0.5-0.2l0.9-0.6l-0.3,0l-0.3,0.1l-1,0.6l0,0l0,0l-0.1,0l0,0l0-0.1l0,0l0,0l0-0.1
	l0-0.1l0-0.1l0-0.1l1-0.4l0.3,0l0.4,0l0.3,0l0.3-0.1l0.3-0.2l0.9-0.6l0.5-0.4l0.1-0.1l0.2,0l0.1-0.1l0.4-0.4l0.4-0.5l0.2-0.1
	l0.6-0.4l0.1-0.1l0-0.1l0-0.1l-0.1-0.4l0-0.2l0.1-0.2l-0.1-0.2l-0.1-0.1l0.1,0.1l0.1,0l0.1,0l0.1,0.2l0.2-0.1l0.2-0.1l0.5-0.6l0,0
	l0-0.1l0,0l0,0l0.1,0l0,0l0.2-0.1l0.1-0.1l0-0.1h0.1l0.1,0.1l0.1-0.1l0.1-0.2l0-0.2l0.1-0.2l0.1,0l0.2,0l0.1,0.1l0,0l0,0l0,0l0,0
	l-0.3-0.2l-0.1,0l-0.1-0.1l-0.2-0.4l0,0v0l0,0h0l0,0l0,0l0,0v0.1l-0.2,0l0-0.1l0-0.1l-0.1-0.1v-0.1l0.1,0l0.1-0.1l0.1-0.1l0.1-0.1
	l-0.6-0.2l-0.2-0.2l0.1-0.2l0.1-0.1l0.1-0.2l0-0.1l-0.3-0.1l0-0.1l0-0.2l0.1-0.1l0-0.1l0,0l-0.1,0l-0.1,0l-0.1,0l-0.1-0.1l-0.1-0.1
	l0,0l0.5,0l0.2,0.1l0.2,0.2l0.2,0.1l0.2-0.2l0.1-0.3l0.1-0.3l0.1-0.1l0.1-0.1l0.3-0.1l0.2-0.1l0.1,0l0.1,0l0,0.2l0.1,0l0.1,0l0,0.1
	l0,0.1l0.1,0.2l-0.1,0.2l-0.1,0.4l-0.1,0.3l-0.1,0.3l-0.1,0.1l-0.1,0l-0.1,0l-0.1,0l0,0.1l0.1,0.1l0.1,0l0.1,0l0.4-0.1l1.1-0.3
	l0.1,0l0.1,0.1l0.1,0.1l0.1,0.1l0.1-0.1l0.1-0.1l0,0.1l-0.1,0.2l-0.1,0.1l-0.1,0l-0.4,0l-0.1,0l-0.1,0.1l-0.2,0.2l-0.1,0l-0.1,0
	l-0.1,0l-0.2,0l-0.2,0.1l-0.6,0.6l-0.1,0.1l0,0.1l0.2,0l0.2-0.1l0.4-0.5l0.3-0.2l2.4-1.1l0.9-0.3l0.6-0.4l0.2-0.1l0.3-0.1l0.2,0
	l0.9,0l0.2,0.1l0.1,0l0.1-0.2l-0.1-0.3l-0.4-0.5l-0.2-0.3l0.1-0.3l0.6-0.9l0.1-0.2l0-0.2l0.1,0l0.2,0l0.1,0v0l0.2-0.3l0.4-0.5
	l-0.1-0.1l0-0.1l0.1-0.2l0-0.2l0-0.1l0-0.1l0-0.2l0-0.1l-0.1-0.1l0-0.1l0-0.1l0.1-0.2l0-0.1l0-0.2l-0.1-0.1l-0.1-0.1l-0.1-0.1l0-0.4
	l0-0.2l0.1-0.2l0.2-0.2l0.1-0.1l0-0.2l0-0.1l-0.1-0.3l0,0l0-0.2l0,0l-0.1,0l0,0l0-0.2l0.1-0.2l0.1-0.1l0.1,0l0-0.1l0.1-0.4l0.1-0.1
	l0.3-0.2l0.1-0.1l0.1-0.4l0.3-0.5l0-0.1l0-0.1v-0.1l0-0.1l0-0.2l0-0.1l0-0.1l0.1-0.1l0.1-0.1l0-0.1l0,0l-0.1-0.1l-0.1-0.1l-0.1-0.2
	l-0.1-0.2l0.1-0.1l0.1,0l0.2-0.1l0.1,0L21.1,130.4L21.1,130.4z M-0.8,153.5L-0.8,153.5L-0.8,153.5l-0.2,0l0,0l0,0.2l0,0.1l-0.1,0.2
	l-0.1,0l-0.3,0l-0.2,0l-0.1,0.1l-0.2,0.2l-0.4,0.2l-0.1,0l-0.1,0.1l-0.3,0.2l-0.1,0.1l-0.1,0.1l-0.3,0.2l-0.1,0l-0.1,0l-0.2,0.1
	l-0.2,0l-0.1,0.1l0,0.1l0,0.2l0.1,0.1v0.1l-0.1,0.1L-4,156l-0.1,0.2l0,0.1H-4l0.1-0.1l0.1-0.1l0.2-0.2l0.4-0.3l0.2-0.2l0.7-0.4
	l0.4-0.4l0.2-0.2l0.2-0.1l0.6-0.3l0,0l0.1-0.1l0-0.1l0-0.1L-0.8,153.5L-0.8,153.5z M-0.1,153l-0.4,0.4v0.1l0.1,0l0.1-0.1l0.2-0.2
	l0.2-0.1l0.1-0.1l0.2-0.1l0.1,0l0,0l0,0l0,0l0.1,0v-0.1l-0.3,0.1L-0.1,153z"/>
</svg>
